<?xml version="1.0" encoding="UTF-8" standalone="no"?>
<!-- Created with Inkscape (http://www.inkscape.org/) -->

<svg
   xmlns:dc="http://purl.org/dc/elements/1.1/"
   xmlns:cc="http://creativecommons.org/ns#"
   xmlns:rdf="http://www.w3.org/1999/02/22-rdf-syntax-ns#"
   xmlns:svg="http://www.w3.org/2000/svg"
   xmlns="http://www.w3.org/2000/svg"
   xmlns:sodipodi="http://sodipodi.sourceforge.net/DTD/sodipodi-0.dtd"
   xmlns:inkscape="http://www.inkscape.org/namespaces/inkscape"
   width="48px"
   height="48px"
   id="svg2985"
   version="1.1"
   inkscape:version="0.48.4 r9939"
   sodipodi:docname="skills.svg">
  <defs
     id="defs2987" />
  <sodipodi:namedview
     id="base"
     pagecolor="#ffffff"
     bordercolor="#666666"
     borderopacity="1.0"
     inkscape:pageopacity="0.0"
     inkscape:pageshadow="2"
     inkscape:zoom="16.395833"
     inkscape:cx="24.04644"
     inkscape:cy="26.439644"
     inkscape:current-layer="layer1"
     showgrid="true"
     inkscape:grid-bbox="true"
     inkscape:document-units="px"
     inkscape:window-width="958"
     inkscape:window-height="1024"
     inkscape:window-x="0"
     inkscape:window-y="30"
     inkscape:window-maximized="0">
    <inkscape:grid
       type="xygrid"
       id="grid2993"
       empspacing="5"
       visible="true"
       enabled="true"
       snapvisiblegridlinesonly="true" />
  </sodipodi:namedview>
  <metadata
     id="metadata2990">
    <rdf:RDF>
      <cc:Work
         rdf:about="">
        <dc:format>image/svg+xml</dc:format>
        <dc:type
           rdf:resource="http://purl.org/dc/dcmitype/StillImage" />
        <dc:title></dc:title>
      </cc:Work>
    </rdf:RDF>
  </metadata>
  <g
     id="layer1"
     inkscape:label="Layer 1"
     inkscape:groupmode="layer">
    <path
       style="fill:#000000;fill-opacity:1;stroke:none"
       d="M 6.78125 16.78125 L 6.78125 32.78125 L 41.78125 32.78125 L 41.78125 16.78125 L 6.78125 16.78125 z M 9.6875 19.25 L 28.6875 19.25 L 28.6875 22.25 L 9.6875 22.25 L 9.6875 19.25 z M 30.6875 19.25 L 38.6875 19.25 L 38.6875 22.25 L 30.6875 22.25 L 30.6875 19.25 z M 20.9375 23.1875 L 23.9375 23.1875 L 23.9375 26.1875 L 20.9375 26.1875 L 20.9375 23.1875 z M 24.9375 23.1875 L 27.9375 23.1875 L 27.9375 26.1875 L 24.9375 26.1875 L 24.9375 23.1875 z M 28.9375 23.1875 L 31.9375 23.1875 L 31.9375 26.1875 L 28.9375 26.1875 L 28.9375 23.1875 z M 32.9375 23.1875 L 35.9375 23.1875 L 35.9375 26.1875 L 32.9375 26.1875 L 32.9375 23.1875 z M 9.6875 23.25 L 15.6875 23.25 L 15.6875 26.25 L 9.6875 26.25 L 9.6875 23.25 z M 16.6875 23.25 L 19.6875 23.25 L 19.6875 26.25 L 16.6875 26.25 L 16.6875 23.25 z M 12.9375 27.1875 L 15.9375 27.1875 L 15.9375 30.1875 L 12.9375 30.1875 L 12.9375 27.1875 z M 16.9375 27.1875 L 19.9375 27.1875 L 19.9375 30.1875 L 16.9375 30.1875 L 16.9375 27.1875 z M 20.9375 27.1875 L 23.9375 27.1875 L 23.9375 30.1875 L 20.9375 30.1875 L 20.9375 27.1875 z M 24.9375 27.1875 L 27.9375 27.1875 L 27.9375 30.1875 L 24.9375 30.1875 L 24.9375 27.1875 z M 28.9375 27.1875 L 31.9375 27.1875 L 31.9375 30.1875 L 28.9375 30.1875 L 28.9375 27.1875 z M 32.9375 27.1875 L 35.9375 27.1875 L 35.9375 30.1875 L 32.9375 30.1875 L 32.9375 27.1875 z "
       id="rect2995" />
  </g>
</svg>
